<svg xmlns="http://www.w3.org/2000/svg" viewBox="0 0 180 140"><rect width="180" height="140" rx="16" fill="#f4e9eb"/><ellipse cx="90" cy="86" rx="68" ry="46" fill="#eee5f2"/><g stroke="#8e7a8f" stroke-width="1.4" stroke-linecap="round" stroke-linejoin="round"><circle cx="90" cy="77" r="36" fill="#fff7e4" stroke="#b59b7f" stroke-width="5"/><path d="M80 42V32h20v10M90 96V68m0 15-13-7m13 14 14-11" stroke="#8ca997"/><path d="M90 68c-21-4-12-23 0-14 12-9 22 10 0 14Z" fill="#e6b9c7"/><path d="m112 52 28-24m-15 41c29 8 17 31-4 26" stroke="#ad98b8"/></g><g fill="#baa5bd"><path d="m28 30 2 6 6 2-6 2-2 6-2-6-6-2 6-2Z"/><circle cx="148" cy="24" r="2"/><circle cx="24" cy="112" r="1.5"/></g></svg>